<svg width="105" height="89" viewBox="0 0 105 89" fill="none" xmlns="http://www.w3.org/2000/svg">
<path d="M17.4092 15.0963C17.6723 14.141 19.0186 13.9136 18.9644 15.005L19.6763 23.1119C19.5989 23.6942 20.4268 23.9775 20.3881 23.1119L21.1 15.005C21.2315 14.2094 22.4153 14.1182 22.5237 15.005L23.2355 23.1119C23.2355 23.8516 23.87 23.946 23.9396 23.1119L24.6515 15.005C24.7366 14.0953 25.8662 14.141 26.0751 15.005L26.787 23.1119C26.6941 23.9381 27.5762 23.9067 27.4988 23.1119L28.2107 15.005C28.3809 14.1229 29.41 14.3078 29.6344 15.005C31.6074 19.7045 29.6344 39.1887 29.6344 39.1887C29.4796 42.1475 18.5079 41.935 18.2526 39.1887C18.1984 39.0077 15.7147 19.917 17.4092 15.0963V15.0963Z" fill="black"/>
<path d="M21.5929 28.8989H25.727V78.1696C25.8887 80.9891 21.5944 80.9891 21.5929 78.1696V28.8989V28.8989Z" fill="black"/>
<path d="M22.803 56.9117H24.5215C25.7974 56.9117 26.8249 57.9567 26.8249 59.2544V77.9941C26.8249 79.2918 25.7974 80.336 24.5215 80.336H22.803C21.5271 80.336 20.4996 79.2918 20.4996 77.9941V59.2544C20.8942 57.1218 21.5271 56.9117 22.803 56.9117Z" fill="black"/>
<path d="M84.3017 57.9607H82.5829C81.3109 57.9607 80.2797 59.0095 80.2797 60.3032V79.0433C80.2797 80.337 81.3109 81.3858 82.5829 81.3858H84.3017C85.5738 81.3858 86.605 80.337 86.605 79.0433V60.3032C86.605 59.0095 85.5738 57.9607 84.3017 57.9607Z" fill="black"/>
<path d="M81.4058 24.9424H85.5399V79.0117C85.7016 82.1075 81.4073 82.1075 81.4058 79.0117V24.9424Z" fill="black"/>
<path d="M84.2717 11.5096C84.9766 11.5096 85.5437 12.0872 85.5437 12.8041V42.5891C85.5437 43.306 84.9766 43.8828 84.2717 43.8828H79.1611C78.4562 43.8828 77.8883 43.306 77.8883 42.5891V20.6308C77.8883 12.7081 84.2717 11.5096 84.2717 11.5096V11.5096Z" fill="black"/>
<path d="M53.0246 27.3613C39.5537 27.3613 28.6053 38.4962 28.6053 52.1965C28.6053 65.9047 39.5537 77.0081 53.0246 77.0081C66.4955 77.0081 77.4207 65.9047 77.4207 52.1965C77.4207 38.4962 66.4955 27.3613 53.0246 27.3613V27.3613ZM53.6978 33.4835C63.8493 33.4835 72.0974 41.8721 72.0974 52.1965C72.0974 62.5209 63.8493 70.8859 53.6978 70.8859C43.5463 70.8859 35.3214 62.5209 35.3214 52.1965C35.3214 41.8721 43.5463 33.4835 53.6978 33.4835V33.4835Z" fill="black"/>
<path d="M53.69 34.9472C44.351 34.9472 36.7451 42.6747 36.7451 52.1807C36.7451 61.6868 44.351 69.4301 53.69 69.4301C63.0368 69.4301 70.6505 61.6868 70.6505 52.1807C70.6505 42.6747 63.0368 34.9472 53.69 34.9472V34.9472Z" fill="black"/>
</svg>
